<svg id="canvas" width="1200" height="800">
    <rect x="595" y="595" width="10" height="10"></rect>
    <line x1="600" y1="600" x2="530" y2="600" style="fill: none; stroke: black; stroke-width: 1;"></line>
    <line x1="600" y1="600" x2="530" y2="598.5337090263238" style="fill: none; stroke: black; stroke-width: 1;"></line>
    <line x1="600" y1="600" x2="530" y2="597.0661307371447" style="fill: none; stroke: black; stroke-width: 1;"></line>
    <line x1="600" y1="600" x2="530" y2="595.5959732922445" style="fill: none; stroke: black; stroke-width: 1;"></line>
    <line x1="600" y1="600" x2="530" y2="594.1219357681363" style="fill: none; stroke: black; stroke-width: 1;"></line>
    <line x1="600" y1="600" x2="530" y2="592.6427035314027" style="fill: none; stroke: black; stroke-width: 1;"></line>
    <line x1="600" y1="600" x2="530" y2="591.1569435087724" style="fill: none; stroke: black; stroke-width: 1;"></line>
    <line x1="600" y1="600" x2="530" y2="589.6632993174476" style="fill: none; stroke: black; stroke-width: 1;"></line>
    <line x1="600" y1="600" x2="530" y2="588.1603862173613" style="fill: none; stroke: black; stroke-width: 1;"></line>
    <line x1="600" y1="600" x2="530" y2="586.6467858447004" style="fill: none; stroke: black; stroke-width: 1;"></line>
    <line x1="600" y1="600" x2="530" y2="585.1210406830985" style="fill: none; stroke: black; stroke-width: 1;"></line>
    <line x1="600" y1="600" x2="530" y2="583.5816482253535" style="fill: none; stroke: black; stroke-width: 1;"></line>
    <line x1="600" y1="600" x2="530" y2="582.0270547742591" style="fill: none; stroke: black; stroke-width: 1;"></line>
    <line x1="600" y1="600" x2="530" y2="580.4556488260789" style="fill: none; stroke: black; stroke-width: 1;"></line>
    <line x1="600" y1="600" x2="530" y2="578.865753974226" style="fill: none; stroke: black; stroke-width: 1;"></line>
    <line x1="600" y1="600" x2="530" y2="577.2556212636966" style="fill: none; stroke: black; stroke-width: 1;"></line>
    <line x1="600" y1="600" x2="530" y2="575.6234209185985" style="fill: none; stroke: black; stroke-width: 1;"></line>
    <line x1="600" y1="600" x2="530" y2="573.9672333555086" style="fill: none; stroke: black; stroke-width: 1;"></line>
    <line x1="600" y1="600" x2="530" y2="572.2850393841595" style="fill: none; stroke: black; stroke-width: 1;"></line>
    <line x1="600" y1="600" x2="530" y2="570.5747094838262" style="fill: none; stroke: black; stroke-width: 1;"></line>
    <line x1="600" y1="600" x2="530" y2="568.8339920284025" style="fill: none; stroke: black; stroke-width: 1;"></line>
    <line x1="600" y1="600" x2="530" y2="567.0605003151425" style="fill: none; stroke: black; stroke-width: 1;"></line>
    <line x1="600" y1="600" x2="530" y2="565.2516982308844" style="fill: none; stroke: black; stroke-width: 1;"></line>
    <line x1="600" y1="600" x2="530" y2="563.4048843646917" style="fill: none; stroke: black; stroke-width: 1;"></line>
    <line x1="600" y1="600" x2="530" y2="561.5171743465061" style="fill: none; stroke: black; stroke-width: 1;"></line>
    <line x1="600" y1="600" x2="530" y2="559.5854811567262" style="fill: none; stroke: black; stroke-width: 1;"></line>
    <line x1="600" y1="600" x2="530" y2="557.606493110532" style="fill: none; stroke: black; stroke-width: 1;"></line>
    <line x1="600" y1="600" x2="530" y2="555.5766491719096" style="fill: none; stroke: black; stroke-width: 1;"></line>
    <line x1="600" y1="600" x2="530" y2="553.4921111940802" style="fill: none; stroke: black; stroke-width: 1;"></line>
    <line x1="600" y1="600" x2="530" y2="551.3487326133376" style="fill: none; stroke: black; stroke-width: 1;"></line>
    <line x1="600" y1="600" x2="530" y2="549.1420230396247" style="fill: none; stroke: black; stroke-width: 1;"></line>
    <line x1="600" y1="600" x2="530" y2="546.8671080863523" style="fill: none; stroke: black; stroke-width: 1;"></line>
    <line x1="600" y1="600" x2="530" y2="544.5186836600018" style="fill: none; stroke: black; stroke-width: 1;"></line>
    <line x1="600" y1="600" x2="530" y2="542.0909637819267" style="fill: none; stroke: black; stroke-width: 1;"></line>
    <line x1="600" y1="600" x2="530" y2="539.5776208340928" style="fill: none; stroke: black; stroke-width: 1;"></line>
    <line x1="600" y1="600" x2="530" y2="536.9717168991511" style="fill: none; stroke: black; stroke-width: 1;"></line>
    <line x1="600" y1="600" x2="530" y2="534.2656245927756" style="fill: none; stroke: black; stroke-width: 1;"></line>
    <line x1="600" y1="600" x2="530" y2="531.4509354491951" style="fill: none; stroke: black; stroke-width: 1;"></line>
    <line x1="600" y1="600" x2="530" y2="528.5183535018427" style="fill: none; stroke: black; stroke-width: 1;"></line>
    <line x1="600" y1="600" x2="530" y2="525.4575711772645" style="fill: none; stroke: black; stroke-width: 1;"></line>
    <line x1="600" y1="600" x2="530" y2="522.2571239619565" style="fill: none; stroke: black; stroke-width: 1;"></line>
    <line x1="600" y1="600" x2="530" y2="518.9042194689878" style="fill: none; stroke: black; stroke-width: 1;"></line>
    <line x1="600" y1="600" x2="530" y2="515.3845354713274" style="fill: none; stroke: black; stroke-width: 1;"></line>
    <line x1="600" y1="600" x2="530" y2="511.6819801107089" style="fill: none; stroke: black; stroke-width: 1;"></line>
    <line x1="600" y1="600" x2="530" y2="507.7784057385102" style="fill: none; stroke: black; stroke-width: 1;"></line>
    <line x1="600" y1="600" x2="530" y2="503.6532655670177" style="fill: none; stroke: black; stroke-width: 1;"></line>
    <line x1="600" y1="600" x2="530" y2="499.28319932435454" style="fill: none; stroke: black; stroke-width: 1;"></line>
    <line x1="600" y1="600" x2="530" y2="494.64153016173236" style="fill: none; stroke: black; stroke-width: 1;"></line>
    <line x1="600" y1="600" x2="530" y2="489.6976498021942" style="fill: none; stroke: black; stroke-width: 1;"></line>
    <line x1="600" y1="600" x2="530" y2="484.41626183991536" style="fill: none; stroke: black; stroke-width: 1;"></line>
    <line x1="600" y1="600" x2="530" y2="478.7564434701782" style="fill: none; stroke: black; stroke-width: 1;"></line>
    <line x1="600" y1="600" x2="530" y2="472.670472690325" style="fill: none; stroke: black; stroke-width: 1;"></line>
    <line x1="600" y1="600" x2="530" y2="466.10234959136665" style="fill: none; stroke: black; stroke-width: 1;"></line>
    <line x1="600" y1="600" x2="530" y2="458.98591440358865" style="fill: none; stroke: black; stroke-width: 1;"></line>
    <line x1="600" y1="600" x2="530" y2="451.24242787899533" style="fill: none; stroke: black; stroke-width: 1;"></line>
    <line x1="600" y1="600" x2="530" y2="442.7774258267043" style="fill: none; stroke: black; stroke-width: 1;"></line>
    <line x1="600" y1="600" x2="530" y2="433.47658038221584" style="fill: none; stroke: black; stroke-width: 1;"></line>
    <line x1="600" y1="600" x2="530" y2="423.20018173868795" style="fill: none; stroke: black; stroke-width: 1;"></line>
    <line x1="600" y1="600" x2="530" y2="411.7756722934836" style="fill: none; stroke: black; stroke-width: 1;"></line>
    <line x1="600" y1="600" x2="530" y2="398.9873811400156" style="fill: none; stroke: black; stroke-width: 1;"></line>
    <line x1="600" y1="600" x2="530" y2="384.5621523977312" style="fill: none; stroke: black; stroke-width: 1;"></line>
    <line x1="600" y1="600" x2="530" y2="368.1488142976898" style="fill: none; stroke: black; stroke-width: 1;"></line>
    <line x1="600" y1="600" x2="532.770044846184" y2="359.20935830058534" style="fill: none; stroke: black; stroke-width: 1;"></line>
    <line x1="600" y1="600" x2="537.8275282087867" y2="357.8542097178421" style="fill: none; stroke: black; stroke-width: 1;"></line>
    <line x1="600" y1="600" x2="542.9122824723365" y2="356.60527428170985" style="fill: none; stroke: black; stroke-width: 1;"></line>
    <line x1="600" y1="600" x2="548.0220772955606" y2="355.4630998165485" style="fill: none; stroke: black; stroke-width: 1;"></line>
    <line x1="600" y1="600" x2="553.1546713535693" y2="354.42818731782774" style="fill: none; stroke: black; stroke-width: 1;"></line>
    <line x1="600" y1="600" x2="558.3078133209749" y2="353.5009907323737" style="fill: none; stroke: black; stroke-width: 1;"></line>
    <line x1="600" y1="600" x2="563.4792428593976" y2="352.6819167592529" style="fill: none; stroke: black; stroke-width: 1;"></line>
    <line x1="600" y1="600" x2="568.6666916089245" y2="351.97132467138044" style="fill: none; stroke: black; stroke-width: 1;"></line>
    <line x1="600" y1="600" x2="573.8678841830871" y2="351.36952615793166" style="fill: none; stroke: black; stroke-width: 1;"></line>
    <line x1="600" y1="600" x2="579.0805391669217" y2="350.8767851876239" style="fill: none; stroke: black; stroke-width: 1;"></line>
    <line x1="600" y1="600" x2="584.3023701176721" y2="350.49331789293205" style="fill: none; stroke: black; stroke-width: 1;"></line>
    <line x1="600" y1="600" x2="589.5310865677006" y2="350.2192924752854" style="fill: none; stroke: black; stroke-width: 1;"></line>
    <line x1="600" y1="600" x2="594.7643950291613" y2="350.0548291312886" style="fill: none; stroke: black; stroke-width: 1;"></line>
    <line x1="600" y1="600" x2="600.0000000000006" y2="350" style="fill: none; stroke: black; stroke-width: 1;"></line>
    <line x1="600" y1="600" x2="605.2356049708399" y2="350.05482913128867" style="fill: none; stroke: black; stroke-width: 1;"></line>
    <line x1="600" y1="600" x2="610.4689134323005" y2="350.21929247528544" style="fill: none; stroke: black; stroke-width: 1;"></line>
    <line x1="600" y1="600" x2="615.6976298823289" y2="350.49331789293217" style="fill: none; stroke: black; stroke-width: 1;"></line>
    <line x1="600" y1="600" x2="620.9194608330795" y2="350.87678518762397" style="fill: none; stroke: black; stroke-width: 1;"></line>
    <line x1="600" y1="600" x2="626.1321158169139" y2="351.3695261579318" style="fill: none; stroke: black; stroke-width: 1;"></line>
    <line x1="600" y1="600" x2="631.3333083910767" y2="351.9713246713806" style="fill: none; stroke: black; stroke-width: 1;"></line>
    <line x1="600" y1="600" x2="636.5207571406036" y2="352.681916759253" style="fill: none; stroke: black; stroke-width: 1;"></line>
    <line x1="600" y1="600" x2="641.6921866790262" y2="353.5009907323739" style="fill: none; stroke: black; stroke-width: 1;"></line>
    <line x1="600" y1="600" x2="646.8453286464318" y2="354.42818731782796" style="fill: none; stroke: black; stroke-width: 1;"></line>
    <line x1="600" y1="600" x2="651.9779227044405" y2="355.4630998165487" style="fill: none; stroke: black; stroke-width: 1;"></line>
    <line x1="600" y1="600" x2="657.0877175276646" y2="356.6052742817101" style="fill: none; stroke: black; stroke-width: 1;"></line>
    <line x1="600" y1="600" x2="662.1724717912144" y2="357.8542097178424" style="fill: none; stroke: black; stroke-width: 1;"></line>
    <line x1="600" y1="600" x2="667.2299551538172" y2="359.2093583005857" style="fill: none; stroke: black; stroke-width: 1;"></line>
    <line x1="600" y1="600" x2="670" y2="368.14881429769366" style="fill: none; stroke: black; stroke-width: 1;"></line>
    <line x1="600" y1="600" x2="670" y2="384.56215239773445" style="fill: none; stroke: black; stroke-width: 1;"></line>
    <line x1="600" y1="600" x2="670" y2="398.98738114001844" style="fill: none; stroke: black; stroke-width: 1;"></line>
    <line x1="600" y1="600" x2="670" y2="411.77567229348614" style="fill: none; stroke: black; stroke-width: 1;"></line>
    <line x1="600" y1="600" x2="670" y2="423.2001817386904" style="fill: none; stroke: black; stroke-width: 1;"></line>
    <line x1="600" y1="600" x2="670" y2="433.4765803822178" style="fill: none; stroke: black; stroke-width: 1;"></line>
    <line x1="600" y1="600" x2="670" y2="442.7774258267061" style="fill: none; stroke: black; stroke-width: 1;"></line>
    <line x1="600" y1="600" x2="670" y2="451.2424278789971" style="fill: none; stroke: black; stroke-width: 1;"></line>
    <line x1="600" y1="600" x2="670" y2="458.98591440359024" style="fill: none; stroke: black; stroke-width: 1;"></line>
    <line x1="600" y1="600" x2="670" y2="466.10234959136795" style="fill: none; stroke: black; stroke-width: 1;"></line>
    <line x1="600" y1="600" x2="670" y2="472.6704726903264" style="fill: none; stroke: black; stroke-width: 1;"></line>
    <line x1="600" y1="600" x2="670" y2="478.7564434701795" style="fill: none; stroke: black; stroke-width: 1;"></line>
    <line x1="600" y1="600" x2="670" y2="484.4162618399165" style="fill: none; stroke: black; stroke-width: 1;"></line>
    <line x1="600" y1="600" x2="670" y2="489.6976498021953" style="fill: none; stroke: black; stroke-width: 1;"></line>
    <line x1="600" y1="600" x2="670" y2="494.64153016173333" style="fill: none; stroke: black; stroke-width: 1;"></line>
    <line x1="600" y1="600" x2="670" y2="499.2831993243555" style="fill: none; stroke: black; stroke-width: 1;"></line>
    <line x1="600" y1="600" x2="670" y2="503.6532655670186" style="fill: none; stroke: black; stroke-width: 1;"></line>
    <line x1="600" y1="600" x2="670" y2="507.778405738511" style="fill: none; stroke: black; stroke-width: 1;"></line>
    <line x1="600" y1="600" x2="670" y2="511.68198011070956" style="fill: none; stroke: black; stroke-width: 1;"></line>
    <line x1="600" y1="600" x2="670" y2="515.3845354713279" style="fill: none; stroke: black; stroke-width: 1;"></line>
    <line x1="600" y1="600" x2="670" y2="518.9042194689885" style="fill: none; stroke: black; stroke-width: 1;"></line>
    <line x1="600" y1="600" x2="670" y2="522.257123961957" style="fill: none; stroke: black; stroke-width: 1;"></line>
    <line x1="600" y1="600" x2="670" y2="525.457571177265" style="fill: none; stroke: black; stroke-width: 1;"></line>
    <line x1="600" y1="600" x2="670" y2="528.5183535018431" style="fill: none; stroke: black; stroke-width: 1;"></line>
    <line x1="600" y1="600" x2="670" y2="531.4509354491954" style="fill: none; stroke: black; stroke-width: 1;"></line>
    <line x1="600" y1="600" x2="670" y2="534.2656245927758" style="fill: none; stroke: black; stroke-width: 1;"></line>
    <line x1="600" y1="600" x2="670" y2="536.9717168991515" style="fill: none; stroke: black; stroke-width: 1;"></line>
    <line x1="600" y1="600" x2="670" y2="539.5776208340931" style="fill: none; stroke: black; stroke-width: 1;"></line>
    <line x1="600" y1="600" x2="670" y2="542.0909637819269" style="fill: none; stroke: black; stroke-width: 1;"></line>
    <line x1="600" y1="600" x2="670" y2="544.518683660002" style="fill: none; stroke: black; stroke-width: 1;"></line>
    <line x1="600" y1="600" x2="670" y2="546.8671080863526" style="fill: none; stroke: black; stroke-width: 1;"></line>
    <line x1="600" y1="600" x2="670" y2="549.1420230396249" style="fill: none; stroke: black; stroke-width: 1;"></line>
    <line x1="600" y1="600" x2="670" y2="551.3487326133377" style="fill: none; stroke: black; stroke-width: 1;"></line>
    <line x1="600" y1="600" x2="670" y2="553.4921111940803" style="fill: none; stroke: black; stroke-width: 1;"></line>
    <line x1="600" y1="600" x2="670" y2="555.5766491719096" style="fill: none; stroke: black; stroke-width: 1;"></line>
    <line x1="600" y1="600" x2="670" y2="557.606493110532" style="fill: none; stroke: black; stroke-width: 1;"></line>
    <line x1="600" y1="600" x2="670" y2="559.5854811567262" style="fill: none; stroke: black; stroke-width: 1;"></line>
    <line x1="600" y1="600" x2="670" y2="561.5171743465061" style="fill: none; stroke: black; stroke-width: 1;"></line>
    <line x1="600" y1="600" x2="670" y2="563.4048843646917" style="fill: none; stroke: black; stroke-width: 1;"></line>
    <line x1="600" y1="600" x2="670" y2="565.2516982308842" style="fill: none; stroke: black; stroke-width: 1;"></line>
    <line x1="600" y1="600" x2="670" y2="567.0605003151423" style="fill: none; stroke: black; stroke-width: 1;"></line>
    <line x1="600" y1="600" x2="670" y2="568.8339920284025" style="fill: none; stroke: black; stroke-width: 1;"></line>
    <line x1="600" y1="600" x2="670" y2="570.5747094838262" style="fill: none; stroke: black; stroke-width: 1;"></line>
    <line x1="600" y1="600" x2="670" y2="572.2850393841594" style="fill: none; stroke: black; stroke-width: 1;"></line>
    <line x1="600" y1="600" x2="670" y2="573.9672333555085" style="fill: none; stroke: black; stroke-width: 1;"></line>
    <line x1="600" y1="600" x2="670" y2="575.6234209185984" style="fill: none; stroke: black; stroke-width: 1;"></line>
    <line x1="600" y1="600" x2="670" y2="577.2556212636964" style="fill: none; stroke: black; stroke-width: 1;"></line>
    <line x1="600" y1="600" x2="670" y2="578.8657539742259" style="fill: none; stroke: black; stroke-width: 1;"></line>
    <line x1="600" y1="600" x2="670" y2="580.4556488260788" style="fill: none; stroke: black; stroke-width: 1;"></line>
    <line x1="600" y1="600" x2="670" y2="582.0270547742589" style="fill: none; stroke: black; stroke-width: 1;"></line>
    <line x1="600" y1="600" x2="670" y2="583.5816482253533" style="fill: none; stroke: black; stroke-width: 1;"></line>
    <line x1="600" y1="600" x2="670" y2="585.1210406830983" style="fill: none; stroke: black; stroke-width: 1;"></line>
    <line x1="600" y1="600" x2="670" y2="586.6467858447002" style="fill: none; stroke: black; stroke-width: 1;"></line>
    <line x1="600" y1="600" x2="670" y2="588.160386217361" style="fill: none; stroke: black; stroke-width: 1;"></line>
    <line x1="600" y1="600" x2="670" y2="589.6632993174472" style="fill: none; stroke: black; stroke-width: 1;"></line>
    <line x1="600" y1="600" x2="670" y2="591.1569435087722" style="fill: none; stroke: black; stroke-width: 1;"></line>
    <line x1="600" y1="600" x2="670" y2="592.6427035314023" style="fill: none; stroke: black; stroke-width: 1;"></line>
    <line x1="600" y1="600" x2="670" y2="594.121935768136" style="fill: none; stroke: black; stroke-width: 1;"></line>
    <line x1="600" y1="600" x2="670" y2="595.5959732922443" style="fill: none; stroke: black; stroke-width: 1;"></line>
    <line x1="600" y1="600" x2="670" y2="597.0661307371445" style="fill: none; stroke: black; stroke-width: 1;"></line>
    <line x1="600" y1="600" x2="670" y2="598.5337090263234" style="fill: none; stroke: black; stroke-width: 1;"></line>
    <line x1="600" y1="600" x2="670" y2="599.9999999999997" style="fill: none; stroke: black; stroke-width: 1;"></line>
    <polyline points="280,612 530,612 530,362" style="fill: none; stroke: red; stroke-width: 5;"></polyline>
    <polyline points="670,362 670,612 920,612" style="fill: none; stroke: red; stroke-width: 5;"></polyline>
</svg>