<svg id="canvas" width="1200" height="800">
    <rect x="595" y="595" width="10" height="10"></rect>
    <line x1="600" y1="600" x2="350" y2="600" style="fill: none; stroke: black; stroke-width: 1;"></line>
    <line x1="600" y1="600" x2="350.0548291312886" y2="594.7643950291607" style="fill: none; stroke: black; stroke-width: 1;"></line>
    <line x1="600" y1="600" x2="350.21929247528544" y2="589.5310865677001" style="fill: none; stroke: black; stroke-width: 1;"></line>
    <line x1="600" y1="600" x2="350.4933178929321" y2="584.3023701176717" style="fill: none; stroke: black; stroke-width: 1;"></line>
    <line x1="600" y1="600" x2="350.8767851876239" y2="579.0805391669211" style="fill: none; stroke: black; stroke-width: 1;"></line>
    <line x1="600" y1="600" x2="351.36952615793166" y2="573.8678841830866" style="fill: none; stroke: black; stroke-width: 1;"></line>
    <line x1="600" y1="600" x2="351.97132467138056" y2="568.6666916089239" style="fill: none; stroke: black; stroke-width: 1;"></line>
    <line x1="600" y1="600" x2="352.6819167592529" y2="563.4792428593971" style="fill: none; stroke: black; stroke-width: 1;"></line>
    <line x1="600" y1="600" x2="353.5009907323738" y2="558.3078133209744" style="fill: none; stroke: black; stroke-width: 1;"></line>
    <line x1="600" y1="600" x2="354.42818731782785" y2="553.1546713535688" style="fill: none; stroke: black; stroke-width: 1;"></line>
    <line x1="600" y1="600" x2="355.4630998165486" y2="548.0220772955602" style="fill: none; stroke: black; stroke-width: 1;"></line>
    <line x1="600" y1="600" x2="356.60527428170997" y2="542.9122824723361" style="fill: none; stroke: black; stroke-width: 1;"></line>
    <line x1="600" y1="600" x2="357.8542097178422" y2="537.8275282087864" style="fill: none; stroke: black; stroke-width: 1;"></line>
    <line x1="600" y1="600" x2="359.20935830058545" y2="532.7700448461836" style="fill: none; stroke: black; stroke-width: 1;"></line>
    <line x1="600" y1="600" x2="360.6701256169832" y2="527.742050763882" style="fill: none; stroke: black; stroke-width: 1;"></line>
    <line x1="600" y1="600" x2="372.2514182490313" y2="526" style="fill: none; stroke: black; stroke-width: 1;"></line>
    <line x1="600" y1="600" x2="387.50094577658894" y2="526" style="fill: none; stroke: black; stroke-width: 1;"></line>
    <line x1="600" y1="600" x2="401.01999642454064" y2="526" style="fill: none; stroke: black; stroke-width: 1;"></line>
    <line x1="600" y1="600" x2="413.09733498089946" y2="526" style="fill: none; stroke: black; stroke-width: 1;"></line>
    <line x1="600" y1="600" x2="423.96095640405736" y2="526" style="fill: none; stroke: black; stroke-width: 1;"></line>
    <line x1="600" y1="600" x2="433.7932787310881" y2="526" style="fill: none; stroke: black; stroke-width: 1;"></line>
    <line x1="600" y1="600" x2="442.7419951863669" y2="526" style="fill: none; stroke: black; stroke-width: 1;"></line>
    <line x1="600" y1="600" x2="450.9279666552227" y2="526" style="fill: none; stroke: black; stroke-width: 1;"></line>
    <line x1="600" y1="600" x2="458.4510552823022" y2="526" style="fill: none; stroke: black; stroke-width: 1;"></line>
    <line x1="600" y1="600" x2="465.3944997012011" y2="526" style="fill: none; stroke: black; stroke-width: 1;"></line>
    <line x1="600" y1="600" x2="471.82824023990304" y2="526" style="fill: none; stroke: black; stroke-width: 1;"></line>
    <line x1="600" y1="600" x2="477.81147680219647" y2="526" style="fill: none; stroke: black; stroke-width: 1;"></line>
    <line x1="600" y1="600" x2="483.3946583623198" y2="526" style="fill: none; stroke: black; stroke-width: 1;"></line>
    <line x1="600" y1="600" x2="488.6210461709744" y2="526" style="fill: none; stroke: black; stroke-width: 1;"></line>
    <line x1="600" y1="600" x2="493.52795357146067" y2="526" style="fill: none; stroke: black; stroke-width: 1;"></line>
    <line x1="600" y1="600" x2="498.14773788513315" y2="526" style="fill: none; stroke: black; stroke-width: 1;"></line>
    <line x1="600" y1="600" x2="502.5086003521394" y2="526" style="fill: none; stroke: black; stroke-width: 1;"></line>
    <line x1="600" y1="600" x2="506.63523611703533" y2="526" style="fill: none; stroke: black; stroke-width: 1;"></line>
    <line x1="600" y1="600" x2="510.549366069689" y2="526" style="fill: none; stroke: black; stroke-width: 1;"></line>
    <line x1="600" y1="600" x2="514.2701748672158" y2="526" style="fill: none; stroke: black; stroke-width: 1;"></line>
    <line x1="600" y1="600" x2="517.8146739026397" y2="526" style="fill: none; stroke: black; stroke-width: 1;"></line>
    <line x1="600" y1="600" x2="521.1980038159654" y2="526" style="fill: none; stroke: black; stroke-width: 1;"></line>
    <line x1="600" y1="600" x2="524.4336879876623" y2="526" style="fill: none; stroke: black; stroke-width: 1;"></line>
    <line x1="600" y1="600" x2="527.533846046292" y2="526" style="fill: none; stroke: black; stroke-width: 1;"></line>
    <line x1="600" y1="600" x2="530.5093745695057" y2="526" style="fill: none; stroke: black; stroke-width: 1;"></line>
    <line x1="600" y1="600" x2="533.37010072196" y2="526" style="fill: none; stroke: black; stroke-width: 1;"></line>
    <line x1="600" y1="600" x2="536.124913453184" y2="526" style="fill: none; stroke: black; stroke-width: 1;"></line>
    <line x1="600" y1="600" x2="538.7818759980369" y2="526" style="fill: none; stroke: black; stroke-width: 1;"></line>
    <line x1="600" y1="600" x2="541.3483227262877" y2="526" style="fill: none; stroke: black; stroke-width: 1;"></line>
    <line x1="600" y1="600" x2="543.830942834144" y2="526" style="fill: none; stroke: black; stroke-width: 1;"></line>
    <line x1="600" y1="600" x2="546.2358529276034" y2="526" style="fill: none; stroke: black; stroke-width: 1;"></line>
    <line x1="600" y1="600" x2="548.5686601912427" y2="526" style="fill: none; stroke: black; stroke-width: 1;"></line>
    <line x1="600" y1="600" x2="550.8345175480277" y2="526" style="fill: none; stroke: black; stroke-width: 1;"></line>
    <line x1="600" y1="600" x2="553.0381719817331" y2="526" style="fill: none; stroke: black; stroke-width: 1;"></line>
    <line x1="600" y1="600" x2="555.1840070025626" y2="526" style="fill: none; stroke: black; stroke-width: 1;"></line>
    <line x1="600" y1="600" x2="557.2760800799678" y2="526" style="fill: none; stroke: black; stroke-width: 1;"></line>
    <line x1="600" y1="600" x2="559.3181557377352" y2="526" style="fill: none; stroke: black; stroke-width: 1;"></line>
    <line x1="600" y1="600" x2="561.3137348998172" y2="526" style="fill: none; stroke: black; stroke-width: 1;"></line>
    <line x1="600" y1="600" x2="563.2660809869349" y2="526" style="fill: none; stroke: black; stroke-width: 1;"></line>
    <line x1="600" y1="600" x2="565.1782431902934" y2="526" style="fill: none; stroke: black; stroke-width: 1;"></line>
    <line x1="600" y1="600" x2="567.0530772871684" y2="526" style="fill: none; stroke: black; stroke-width: 1;"></line>
    <line x1="600" y1="600" x2="568.8932643114736" y2="526" style="fill: none; stroke: black; stroke-width: 1;"></line>
    <line x1="600" y1="600" x2="570.7013273489688" y2="526" style="fill: none; stroke: black; stroke-width: 1;"></line>
    <line x1="600" y1="600" x2="572.4796466901091" y2="526" style="fill: none; stroke: black; stroke-width: 1;"></line>
    <line x1="600" y1="600" x2="574.2304735425186" y2="526" style="fill: none; stroke: black; stroke-width: 1;"></line>
    <line x1="600" y1="600" x2="575.9559424787651" y2="526" style="fill: none; stroke: black; stroke-width: 1;"></line>
    <line x1="600" y1="600" x2="577.6580827727533" y2="526" style="fill: none; stroke: black; stroke-width: 1;"></line>
    <line x1="600" y1="600" x2="579.3388287589979" y2="526" style="fill: none; stroke: black; stroke-width: 1;"></line>
    <line x1="600" y1="600" x2="581.0000293327884" y2="526" style="fill: none; stroke: black; stroke-width: 1;"></line>
    <line x1="600" y1="600" x2="582.643456695374" y2="526" style="fill: none; stroke: black; stroke-width: 1;"></line>
    <line x1="600" y1="600" x2="584.2708144364185" y2="526" style="fill: none; stroke: black; stroke-width: 1;"></line>
    <line x1="600" y1="600" x2="585.8837450358262" y2="526" style="fill: none; stroke: black; stroke-width: 1;"></line>
    <line x1="600" y1="600" x2="587.4838368583535" y2="526" style="fill: none; stroke: black; stroke-width: 1;"></line>
    <line x1="600" y1="600" x2="589.0726307070161" y2="526" style="fill: none; stroke: black; stroke-width: 1;"></line>
    <line x1="600" y1="600" x2="590.6516259949882" y2="526" style="fill: none; stroke: black; stroke-width: 1;"></line>
    <line x1="600" y1="600" x2="592.2222865903401" y2="526" style="fill: none; stroke: black; stroke-width: 1;"></line>
    <line x1="600" y1="600" x2="593.7860463834586" y2="526" style="fill: none; stroke: black; stroke-width: 1;"></line>
    <line x1="600" y1="600" x2="595.34431462323" y2="526" style="fill: none; stroke: black; stroke-width: 1;"></line>
    <line x1="600" y1="600" x2="596.8984810649818" y2="526" style="fill: none; stroke: black; stroke-width: 1;"></line>
    <line x1="600" y1="600" x2="598.4499209706853" y2="526" style="fill: none; stroke: black; stroke-width: 1;"></line>
    <line x1="600" y1="600" x2="600.0000000000002" y2="526" style="fill: none; stroke: black; stroke-width: 1;"></line>
    <line x1="600" y1="600" x2="601.550079029315" y2="526" style="fill: none; stroke: black; stroke-width: 1;"></line>
    <line x1="600" y1="600" x2="603.1015189350186" y2="526" style="fill: none; stroke: black; stroke-width: 1;"></line>
    <line x1="600" y1="600" x2="604.6556853767702" y2="526" style="fill: none; stroke: black; stroke-width: 1;"></line>
    <line x1="600" y1="600" x2="606.2139536165419" y2="526" style="fill: none; stroke: black; stroke-width: 1;"></line>
    <line x1="600" y1="600" x2="607.7777134096602" y2="526" style="fill: none; stroke: black; stroke-width: 1;"></line>
    <line x1="600" y1="600" x2="609.3483740050121" y2="526" style="fill: none; stroke: black; stroke-width: 1;"></line>
    <line x1="600" y1="600" x2="610.9273692929843" y2="526" style="fill: none; stroke: black; stroke-width: 1;"></line>
    <line x1="600" y1="600" x2="612.5161631416469" y2="526" style="fill: none; stroke: black; stroke-width: 1;"></line>
    <line x1="600" y1="600" x2="614.1162549641741" y2="526" style="fill: none; stroke: black; stroke-width: 1;"></line>
    <line x1="600" y1="600" x2="615.7291855635818" y2="526" style="fill: none; stroke: black; stroke-width: 1;"></line>
    <line x1="600" y1="600" x2="617.3565433046265" y2="526" style="fill: none; stroke: black; stroke-width: 1;"></line>
    <line x1="600" y1="600" x2="618.999970667212" y2="526" style="fill: none; stroke: black; stroke-width: 1;"></line>
    <line x1="600" y1="600" x2="620.6611712410024" y2="526" style="fill: none; stroke: black; stroke-width: 1;"></line>
    <line x1="600" y1="600" x2="622.341917227247" y2="526" style="fill: none; stroke: black; stroke-width: 1;"></line>
    <line x1="600" y1="600" x2="624.0440575212353" y2="526" style="fill: none; stroke: black; stroke-width: 1;"></line>
    <line x1="600" y1="600" x2="625.7695264574818" y2="526" style="fill: none; stroke: black; stroke-width: 1;"></line>
    <line x1="600" y1="600" x2="627.5203533098912" y2="526" style="fill: none; stroke: black; stroke-width: 1;"></line>
    <line x1="600" y1="600" x2="629.2986726510317" y2="526" style="fill: none; stroke: black; stroke-width: 1;"></line>
    <line x1="600" y1="600" x2="631.1067356885269" y2="526" style="fill: none; stroke: black; stroke-width: 1;"></line>
    <line x1="600" y1="600" x2="632.946922712832" y2="526" style="fill: none; stroke: black; stroke-width: 1;"></line>
    <line x1="600" y1="600" x2="634.8217568097069" y2="526" style="fill: none; stroke: black; stroke-width: 1;"></line>
    <line x1="600" y1="600" x2="636.7339190130655" y2="526" style="fill: none; stroke: black; stroke-width: 1;"></line>
    <line x1="600" y1="600" x2="638.6862651001833" y2="526" style="fill: none; stroke: black; stroke-width: 1;"></line>
    <line x1="600" y1="600" x2="640.6818442622653" y2="526" style="fill: none; stroke: black; stroke-width: 1;"></line>
    <line x1="600" y1="600" x2="642.7239199200326" y2="526" style="fill: none; stroke: black; stroke-width: 1;"></line>
    <line x1="600" y1="600" x2="644.815992997438" y2="526" style="fill: none; stroke: black; stroke-width: 1;"></line>
    <line x1="600" y1="600" x2="646.9618280182674" y2="526" style="fill: none; stroke: black; stroke-width: 1;"></line>
    <line x1="600" y1="600" x2="649.1654824519728" y2="526" style="fill: none; stroke: black; stroke-width: 1;"></line>
    <line x1="600" y1="600" x2="651.4313398087579" y2="526" style="fill: none; stroke: black; stroke-width: 1;"></line>
    <line x1="600" y1="600" x2="653.764147072397" y2="526" style="fill: none; stroke: black; stroke-width: 1;"></line>
    <line x1="600" y1="600" x2="656.1690571658565" y2="526" style="fill: none; stroke: black; stroke-width: 1;"></line>
    <line x1="600" y1="600" x2="658.6516772737127" y2="526" style="fill: none; stroke: black; stroke-width: 1;"></line>
    <line x1="600" y1="600" x2="661.2181240019636" y2="526" style="fill: none; stroke: black; stroke-width: 1;"></line>
    <line x1="600" y1="600" x2="663.8750865468165" y2="526" style="fill: none; stroke: black; stroke-width: 1;"></line>
    <line x1="600" y1="600" x2="666.6298992780405" y2="526" style="fill: none; stroke: black; stroke-width: 1;"></line>
    <line x1="600" y1="600" x2="669.4906254304949" y2="526" style="fill: none; stroke: black; stroke-width: 1;"></line>
    <line x1="600" y1="600" x2="672.4661539537084" y2="526" style="fill: none; stroke: black; stroke-width: 1;"></line>
    <line x1="600" y1="600" x2="675.5663120123381" y2="526" style="fill: none; stroke: black; stroke-width: 1;"></line>
    <line x1="600" y1="600" x2="678.8019961840349" y2="526" style="fill: none; stroke: black; stroke-width: 1;"></line>
    <line x1="600" y1="600" x2="682.1853260973606" y2="526" style="fill: none; stroke: black; stroke-width: 1;"></line>
    <line x1="600" y1="600" x2="685.7298251327845" y2="526" style="fill: none; stroke: black; stroke-width: 1;"></line>
    <line x1="600" y1="600" x2="689.4506339303114" y2="526" style="fill: none; stroke: black; stroke-width: 1;"></line>
    <line x1="600" y1="600" x2="693.364763882965" y2="526" style="fill: none; stroke: black; stroke-width: 1;"></line>
    <line x1="600" y1="600" x2="697.4913996478608" y2="526" style="fill: none; stroke: black; stroke-width: 1;"></line>
    <line x1="600" y1="600" x2="701.852262114867" y2="526" style="fill: none; stroke: black; stroke-width: 1;"></line>
    <line x1="600" y1="600" x2="706.4720464285394" y2="526" style="fill: none; stroke: black; stroke-width: 1;"></line>
    <line x1="600" y1="600" x2="711.3789538290257" y2="526" style="fill: none; stroke: black; stroke-width: 1;"></line>
    <line x1="600" y1="600" x2="716.6053416376802" y2="526" style="fill: none; stroke: black; stroke-width: 1;"></line>
    <line x1="600" y1="600" x2="722.1885231978035" y2="526" style="fill: none; stroke: black; stroke-width: 1;"></line>
    <line x1="600" y1="600" x2="728.171759760097" y2="526" style="fill: none; stroke: black; stroke-width: 1;"></line>
    <line x1="600" y1="600" x2="734.6055002987989" y2="526" style="fill: none; stroke: black; stroke-width: 1;"></line>
    <line x1="600" y1="600" x2="741.5489447176979" y2="526" style="fill: none; stroke: black; stroke-width: 1;"></line>
    <line x1="600" y1="600" x2="749.0720333447772" y2="526" style="fill: none; stroke: black; stroke-width: 1;"></line>
    <line x1="600" y1="600" x2="757.2580048136326" y2="526" style="fill: none; stroke: black; stroke-width: 1;"></line>
    <line x1="600" y1="600" x2="766.2067212689116" y2="526" style="fill: none; stroke: black; stroke-width: 1;"></line>
    <line x1="600" y1="600" x2="776.039043595942" y2="526" style="fill: none; stroke: black; stroke-width: 1;"></line>
    <line x1="600" y1="600" x2="786.9026650190998" y2="526" style="fill: none; stroke: black; stroke-width: 1;"></line>
    <line x1="600" y1="600" x2="798.9800035754585" y2="526" style="fill: none; stroke: black; stroke-width: 1;"></line>
    <line x1="600" y1="600" x2="812.4990542234098" y2="526" style="fill: none; stroke: black; stroke-width: 1;"></line>
    <line x1="600" y1="600" x2="827.7485817509672" y2="526" style="fill: none; stroke: black; stroke-width: 1;"></line>
    <line x1="600" y1="600" x2="839.3298743830167" y2="527.7420507638816" style="fill: none; stroke: black; stroke-width: 1;"></line>
    <line x1="600" y1="600" x2="840.7906416994144" y2="532.770044846183" style="fill: none; stroke: black; stroke-width: 1;"></line>
    <line x1="600" y1="600" x2="842.1457902821576" y2="537.8275282087857" style="fill: none; stroke: black; stroke-width: 1;"></line>
    <line x1="600" y1="600" x2="843.3947257182899" y2="542.9122824723354" style="fill: none; stroke: black; stroke-width: 1;"></line>
    <line x1="600" y1="600" x2="844.5369001834513" y2="548.0220772955595" style="fill: none; stroke: black; stroke-width: 1;"></line>
    <line x1="600" y1="600" x2="845.571812682172" y2="553.154671353568" style="fill: none; stroke: black; stroke-width: 1;"></line>
    <line x1="600" y1="600" x2="846.4990092676261" y2="558.3078133209735" style="fill: none; stroke: black; stroke-width: 1;"></line>
    <line x1="600" y1="600" x2="847.318083240747" y2="563.4792428593962" style="fill: none; stroke: black; stroke-width: 1;"></line>
    <line x1="600" y1="600" x2="848.0286753286193" y2="568.666691608923" style="fill: none; stroke: black; stroke-width: 1;"></line>
    <line x1="600" y1="600" x2="848.6304738420682" y2="573.8678841830856" style="fill: none; stroke: black; stroke-width: 1;"></line>
    <line x1="600" y1="600" x2="849.123214812376" y2="579.0805391669201" style="fill: none; stroke: black; stroke-width: 1;"></line>
    <line x1="600" y1="600" x2="849.5066821070678" y2="584.3023701176705" style="fill: none; stroke: black; stroke-width: 1;"></line>
    <line x1="600" y1="600" x2="849.7807075247146" y2="589.5310865676989" style="fill: none; stroke: black; stroke-width: 1;"></line>
    <line x1="600" y1="600" x2="849.9451708687113" y2="594.7643950291596" style="fill: none; stroke: black; stroke-width: 1;"></line>
    <line x1="600" y1="600" x2="850" y2="599.9999999999987" style="fill: none; stroke: black; stroke-width: 1;"></line>
    <polyline points="350,526 600,526 600,276" style="fill: none; stroke: red; stroke-width: 5;"></polyline>
    <polyline points="600,276 600,526 850,526" style="fill: none; stroke: red; stroke-width: 5;"></polyline>
</svg>