<svg id="canvas" width="1200" height="800">
    <rect x="595" y="595" width="10" height="10"></rect>
    <line x1="600" y1="600" x2="350" y2="600" style="fill: none; stroke: black; stroke-width: 1;"></line>
    <line x1="600" y1="600" x2="350.0548291312886" y2="594.7643950291607" style="fill: none; stroke: black; stroke-width: 1;"></line>
    <line x1="600" y1="600" x2="350.21929247528544" y2="589.5310865677001" style="fill: none; stroke: black; stroke-width: 1;"></line>
    <line x1="600" y1="600" x2="350.4933178929321" y2="584.3023701176717" style="fill: none; stroke: black; stroke-width: 1;"></line>
    <line x1="600" y1="600" x2="350.8767851876239" y2="579.0805391669211" style="fill: none; stroke: black; stroke-width: 1;"></line>
    <line x1="600" y1="600" x2="351.36952615793166" y2="573.8678841830866" style="fill: none; stroke: black; stroke-width: 1;"></line>
    <line x1="600" y1="600" x2="351.97132467138056" y2="568.6666916089239" style="fill: none; stroke: black; stroke-width: 1;"></line>
    <line x1="600" y1="600" x2="352.6819167592529" y2="563.4792428593971" style="fill: none; stroke: black; stroke-width: 1;"></line>
    <line x1="600" y1="600" x2="353.5009907323738" y2="558.3078133209744" style="fill: none; stroke: black; stroke-width: 1;"></line>
    <line x1="600" y1="600" x2="354.42818731782785" y2="553.1546713535688" style="fill: none; stroke: black; stroke-width: 1;"></line>
    <line x1="600" y1="600" x2="364.7684945260773" y2="550" style="fill: none; stroke: black; stroke-width: 1;"></line>
    <line x1="600" y1="600" x2="386.823912166094" y2="550" style="fill: none; stroke: black; stroke-width: 1;"></line>
    <line x1="600" y1="600" x2="405.2628572535068" y2="550" style="fill: none; stroke: black; stroke-width: 1;"></line>
    <line x1="600" y1="600" x2="420.9201232185071" y2="550" style="fill: none; stroke: black; stroke-width: 1;"></line>
    <line x1="600" y1="600" x2="434.39201021263665" y2="550" style="fill: none; stroke: black; stroke-width: 1;"></line>
    <line x1="600" y1="600" x2="446.11582314123734" y2="550" style="fill: none; stroke: black; stroke-width: 1;"></line>
    <line x1="600" y1="600" x2="456.41955795715467" y2="550" style="fill: none; stroke: black; stroke-width: 1;"></line>
    <line x1="600" y1="600" x2="465.5540516382032" y2="550" style="fill: none; stroke: black; stroke-width: 1;"></line>
    <line x1="600" y1="600" x2="473.71441552763474" y2="550" style="fill: none; stroke: black; stroke-width: 1;"></line>
    <line x1="600" y1="600" x2="481.0547002730117" y2="550" style="fill: none; stroke: black; stroke-width: 1;"></line>
    <line x1="600" y1="600" x2="487.6981613047892" y2="550" style="fill: none; stroke: black; stroke-width: 1;"></line>
    <line x1="600" y1="600" x2="493.7445913421398" y2="550" style="fill: none; stroke: black; stroke-width: 1;"></line>
    <line x1="600" y1="600" x2="499.27565314542073" y2="550" style="fill: none; stroke: black; stroke-width: 1;"></line>
    <line x1="600" y1="600" x2="504.3588211366906" y2="550" style="fill: none; stroke: black; stroke-width: 1;"></line>
    <line x1="600" y1="600" x2="509.0503376359467" y2="550" style="fill: none; stroke: black; stroke-width: 1;"></line>
    <line x1="600" y1="600" x2="513.3974596215561" y2="550" style="fill: none; stroke: black; stroke-width: 1;"></line>
    <line x1="600" y1="600" x2="517.4401870285112" y2="550" style="fill: none; stroke: black; stroke-width: 1;"></line>
    <line x1="600" y1="600" x2="521.2126070015674" y2="550" style="fill: none; stroke: black; stroke-width: 1;"></line>
    <line x1="600" y1="600" x2="524.7439501155233" y2="550" style="fill: none; stroke: black; stroke-width: 1;"></line>
    <line x1="600" y1="600" x2="528.0594280888248" y2="550" style="fill: none; stroke: black; stroke-width: 1;"></line>
    <line x1="600" y1="600" x2="531.1809039764414" y2="550" style="fill: none; stroke: black; stroke-width: 1;"></line>
    <line x1="600" y1="600" x2="534.1274326703644" y2="550" style="fill: none; stroke: black; stroke-width: 1;"></line>
    <line x1="600" y1="600" x2="536.9157000790779" y2="550" style="fill: none; stroke: black; stroke-width: 1;"></line>
    <line x1="600" y1="600" x2="539.5603824795196" y2="550" style="fill: none; stroke: black; stroke-width: 1;"></line>
    <line x1="600" y1="600" x2="542.0744424778486" y2="550" style="fill: none; stroke: black; stroke-width: 1;"></line>
    <line x1="600" y1="600" x2="544.4693742585404" y2="550" style="fill: none; stroke: black; stroke-width: 1;"></line>
    <line x1="600" y1="600" x2="546.7554079837604" y2="550" style="fill: none; stroke: black; stroke-width: 1;"></line>
    <line x1="600" y1="600" x2="548.9416810727448" y2="550" style="fill: none; stroke: black; stroke-width: 1;"></line>
    <line x1="600" y1="600" x2="550" y2="548.9416810727448" style="fill: none; stroke: black; stroke-width: 1;"></line>
    <line x1="600" y1="600" x2="550" y2="546.7554079837604" style="fill: none; stroke: black; stroke-width: 1;"></line>
    <line x1="600" y1="600" x2="550" y2="544.4693742585403" style="fill: none; stroke: black; stroke-width: 1;"></line>
    <line x1="600" y1="600" x2="550" y2="542.0744424778484" style="fill: none; stroke: black; stroke-width: 1;"></line>
    <line x1="600" y1="600" x2="550" y2="539.5603824795195" style="fill: none; stroke: black; stroke-width: 1;"></line>
    <line x1="600" y1="600" x2="550" y2="536.9157000790777" style="fill: none; stroke: black; stroke-width: 1;"></line>
    <line x1="600" y1="600" x2="550" y2="534.1274326703643" style="fill: none; stroke: black; stroke-width: 1;"></line>
    <line x1="600" y1="600" x2="550" y2="531.1809039764412" style="fill: none; stroke: black; stroke-width: 1;"></line>
    <line x1="600" y1="600" x2="550" y2="528.0594280888247" style="fill: none; stroke: black; stroke-width: 1;"></line>
    <line x1="600" y1="600" x2="550" y2="524.7439501155231" style="fill: none; stroke: black; stroke-width: 1;"></line>
    <line x1="600" y1="600" x2="550" y2="521.2126070015672" style="fill: none; stroke: black; stroke-width: 1;"></line>
    <line x1="600" y1="600" x2="550" y2="517.440187028511" style="fill: none; stroke: black; stroke-width: 1;"></line>
    <line x1="600" y1="600" x2="550" y2="513.397459621556" style="fill: none; stroke: black; stroke-width: 1;"></line>
    <line x1="600" y1="600" x2="550" y2="509.05033763594645" style="fill: none; stroke: black; stroke-width: 1;"></line>
    <line x1="600" y1="600" x2="550" y2="504.35882113669044" style="fill: none; stroke: black; stroke-width: 1;"></line>
    <line x1="600" y1="600" x2="550" y2="499.2756531454205" style="fill: none; stroke: black; stroke-width: 1;"></line>
    <line x1="600" y1="600" x2="550" y2="493.74459134213953" style="fill: none; stroke: black; stroke-width: 1;"></line>
    <line x1="600" y1="600" x2="550" y2="487.69816130478887" style="fill: none; stroke: black; stroke-width: 1;"></line>
    <line x1="600" y1="600" x2="550" y2="481.05470027301135" style="fill: none; stroke: black; stroke-width: 1;"></line>
    <line x1="600" y1="600" x2="550" y2="473.71441552763423" style="fill: none; stroke: black; stroke-width: 1;"></line>
    <line x1="600" y1="600" x2="550" y2="465.55405163820257" style="fill: none; stroke: black; stroke-width: 1;"></line>
    <line x1="600" y1="600" x2="550" y2="456.419557957154" style="fill: none; stroke: black; stroke-width: 1;"></line>
    <line x1="600" y1="600" x2="550" y2="446.11582314123655" style="fill: none; stroke: black; stroke-width: 1;"></line>
    <line x1="600" y1="600" x2="550" y2="434.39201021263557" style="fill: none; stroke: black; stroke-width: 1;"></line>
    <line x1="600" y1="600" x2="550" y2="420.9201232185062" style="fill: none; stroke: black; stroke-width: 1;"></line>
    <line x1="600" y1="600" x2="550" y2="405.2628572535057" style="fill: none; stroke: black; stroke-width: 1;"></line>
    <line x1="600" y1="600" x2="550" y2="386.8239121660922" style="fill: none; stroke: black; stroke-width: 1;"></line>
    <line x1="600" y1="600" x2="550" y2="364.7684945260751" style="fill: none; stroke: black; stroke-width: 1;"></line>
    <line x1="600" y1="600" x2="553.1546713535693" y2="354.42818731782774" style="fill: none; stroke: black; stroke-width: 1;"></line>
    <line x1="600" y1="600" x2="558.3078133209749" y2="353.5009907323737" style="fill: none; stroke: black; stroke-width: 1;"></line>
    <line x1="600" y1="600" x2="563.4792428593976" y2="352.6819167592529" style="fill: none; stroke: black; stroke-width: 1;"></line>
    <line x1="600" y1="600" x2="568.6666916089245" y2="351.97132467138044" style="fill: none; stroke: black; stroke-width: 1;"></line>
    <line x1="600" y1="600" x2="573.8678841830871" y2="351.36952615793166" style="fill: none; stroke: black; stroke-width: 1;"></line>
    <line x1="600" y1="600" x2="579.0805391669217" y2="350.8767851876239" style="fill: none; stroke: black; stroke-width: 1;"></line>
    <line x1="600" y1="600" x2="584.3023701176721" y2="350.49331789293205" style="fill: none; stroke: black; stroke-width: 1;"></line>
    <line x1="600" y1="600" x2="589.5310865677006" y2="350.2192924752854" style="fill: none; stroke: black; stroke-width: 1;"></line>
    <line x1="600" y1="600" x2="594.7643950291613" y2="350.0548291312886" style="fill: none; stroke: black; stroke-width: 1;"></line>
    <line x1="600" y1="600" x2="600.0000000000006" y2="350" style="fill: none; stroke: black; stroke-width: 1;"></line>
    <line x1="600" y1="600" x2="605.2356049708399" y2="350.05482913128867" style="fill: none; stroke: black; stroke-width: 1;"></line>
    <line x1="600" y1="600" x2="610.4689134323005" y2="350.21929247528544" style="fill: none; stroke: black; stroke-width: 1;"></line>
    <line x1="600" y1="600" x2="615.6976298823289" y2="350.49331789293217" style="fill: none; stroke: black; stroke-width: 1;"></line>
    <line x1="600" y1="600" x2="620.9194608330795" y2="350.87678518762397" style="fill: none; stroke: black; stroke-width: 1;"></line>
    <line x1="600" y1="600" x2="626.1321158169139" y2="351.3695261579318" style="fill: none; stroke: black; stroke-width: 1;"></line>
    <line x1="600" y1="600" x2="631.3333083910767" y2="351.9713246713806" style="fill: none; stroke: black; stroke-width: 1;"></line>
    <line x1="600" y1="600" x2="636.5207571406036" y2="352.681916759253" style="fill: none; stroke: black; stroke-width: 1;"></line>
    <line x1="600" y1="600" x2="641.6921866790262" y2="353.5009907323739" style="fill: none; stroke: black; stroke-width: 1;"></line>
    <line x1="600" y1="600" x2="646.8453286464318" y2="354.42818731782796" style="fill: none; stroke: black; stroke-width: 1;"></line>
    <line x1="600" y1="600" x2="650" y2="364.76849452608053" style="fill: none; stroke: black; stroke-width: 1;"></line>
    <line x1="600" y1="600" x2="649.9999999999999" y2="386.82391216609665" style="fill: none; stroke: black; stroke-width: 1;"></line>
    <line x1="600" y1="600" x2="650" y2="405.2628572535095" style="fill: none; stroke: black; stroke-width: 1;"></line>
    <line x1="600" y1="600" x2="650" y2="420.92012321850945" style="fill: none; stroke: black; stroke-width: 1;"></line>
    <line x1="600" y1="600" x2="650" y2="434.3920102126383" style="fill: none; stroke: black; stroke-width: 1;"></line>
    <line x1="600" y1="600" x2="650" y2="446.1158231412389" style="fill: none; stroke: black; stroke-width: 1;"></line>
    <line x1="600" y1="600" x2="650" y2="456.41955795715603" style="fill: none; stroke: black; stroke-width: 1;"></line>
    <line x1="600" y1="600" x2="650" y2="465.5540516382043" style="fill: none; stroke: black; stroke-width: 1;"></line>
    <line x1="600" y1="600" x2="650" y2="473.714415527636" style="fill: none; stroke: black; stroke-width: 1;"></line>
    <line x1="600" y1="600" x2="650" y2="481.0547002730127" style="fill: none; stroke: black; stroke-width: 1;"></line>
    <line x1="600" y1="600" x2="650" y2="487.6981613047901" style="fill: none; stroke: black; stroke-width: 1;"></line>
    <line x1="600" y1="600" x2="650" y2="493.7445913421408" style="fill: none; stroke: black; stroke-width: 1;"></line>
    <line x1="600" y1="600" x2="650" y2="499.2756531454216" style="fill: none; stroke: black; stroke-width: 1;"></line>
    <line x1="600" y1="600" x2="650" y2="504.3588211366914" style="fill: none; stroke: black; stroke-width: 1;"></line>
    <line x1="600" y1="600" x2="650" y2="509.05033763594747" style="fill: none; stroke: black; stroke-width: 1;"></line>
    <line x1="600" y1="600" x2="650" y2="513.3974596215568" style="fill: none; stroke: black; stroke-width: 1;"></line>
    <line x1="600" y1="600" x2="650" y2="517.4401870285118" style="fill: none; stroke: black; stroke-width: 1;"></line>
    <line x1="600" y1="600" x2="650" y2="521.2126070015681" style="fill: none; stroke: black; stroke-width: 1;"></line>
    <line x1="600" y1="600" x2="650" y2="524.7439501155238" style="fill: none; stroke: black; stroke-width: 1;"></line>
    <line x1="600" y1="600" x2="650" y2="528.0594280888254" style="fill: none; stroke: black; stroke-width: 1;"></line>
    <line x1="600" y1="600" x2="650" y2="531.1809039764419" style="fill: none; stroke: black; stroke-width: 1;"></line>
    <line x1="600" y1="600" x2="650" y2="534.127432670365" style="fill: none; stroke: black; stroke-width: 1;"></line>
    <line x1="600" y1="600" x2="650" y2="536.9157000790783" style="fill: none; stroke: black; stroke-width: 1;"></line>
    <line x1="600" y1="600" x2="650" y2="539.56038247952" style="fill: none; stroke: black; stroke-width: 1;"></line>
    <line x1="600" y1="600" x2="650" y2="542.0744424778488" style="fill: none; stroke: black; stroke-width: 1;"></line>
    <line x1="600" y1="600" x2="650" y2="544.4693742585407" style="fill: none; stroke: black; stroke-width: 1;"></line>
    <line x1="600" y1="600" x2="650" y2="546.7554079837607" style="fill: none; stroke: black; stroke-width: 1;"></line>
    <line x1="600" y1="600" x2="650" y2="548.941681072745" style="fill: none; stroke: black; stroke-width: 1;"></line>
    <line x1="600" y1="600" x2="651.0583189272554" y2="550" style="fill: none; stroke: black; stroke-width: 1;"></line>
    <line x1="600" y1="600" x2="653.2445920162397" y2="550" style="fill: none; stroke: black; stroke-width: 1;"></line>
    <line x1="600" y1="600" x2="655.5306257414599" y2="550" style="fill: none; stroke: black; stroke-width: 1;"></line>
    <line x1="600" y1="600" x2="657.9255575221517" y2="550" style="fill: none; stroke: black; stroke-width: 1;"></line>
    <line x1="600" y1="600" x2="660.4396175204807" y2="550" style="fill: none; stroke: black; stroke-width: 1;"></line>
    <line x1="600" y1="600" x2="663.0842999209224" y2="550" style="fill: none; stroke: black; stroke-width: 1;"></line>
    <line x1="600" y1="600" x2="665.8725673296357" y2="550" style="fill: none; stroke: black; stroke-width: 1;"></line>
    <line x1="600" y1="600" x2="668.8190960235588" y2="550" style="fill: none; stroke: black; stroke-width: 1;"></line>
    <line x1="600" y1="600" x2="671.9405719111753" y2="550" style="fill: none; stroke: black; stroke-width: 1;"></line>
    <line x1="600" y1="600" x2="675.2560498844769" y2="550" style="fill: none; stroke: black; stroke-width: 1;"></line>
    <line x1="600" y1="600" x2="678.7873929984326" y2="550" style="fill: none; stroke: black; stroke-width: 1;"></line>
    <line x1="600" y1="600" x2="682.5598129714889" y2="550" style="fill: none; stroke: black; stroke-width: 1;"></line>
    <line x1="600" y1="600" x2="686.6025403784439" y2="550" style="fill: none; stroke: black; stroke-width: 1;"></line>
    <line x1="600" y1="600" x2="690.9496623640532" y2="550" style="fill: none; stroke: black; stroke-width: 1;"></line>
    <line x1="600" y1="600" x2="695.6411788633093" y2="550" style="fill: none; stroke: black; stroke-width: 1;"></line>
    <line x1="600" y1="600" x2="700.7243468545792" y2="550" style="fill: none; stroke: black; stroke-width: 1;"></line>
    <line x1="600" y1="600" x2="706.2554086578599" y2="550" style="fill: none; stroke: black; stroke-width: 1;"></line>
    <line x1="600" y1="600" x2="712.3018386952106" y2="550" style="fill: none; stroke: black; stroke-width: 1;"></line>
    <line x1="600" y1="600" x2="718.9452997269877" y2="550" style="fill: none; stroke: black; stroke-width: 1;"></line>
    <line x1="600" y1="600" x2="726.2855844723648" y2="550" style="fill: none; stroke: black; stroke-width: 1;"></line>
    <line x1="600" y1="600" x2="734.4459483617962" y2="550" style="fill: none; stroke: black; stroke-width: 1;"></line>
    <line x1="600" y1="600" x2="743.5804420428444" y2="550" style="fill: none; stroke: black; stroke-width: 1;"></line>
    <line x1="600" y1="600" x2="753.8841768587615" y2="550" style="fill: none; stroke: black; stroke-width: 1;"></line>
    <line x1="600" y1="600" x2="765.6079897873623" y2="550" style="fill: none; stroke: black; stroke-width: 1;"></line>
    <line x1="600" y1="600" x2="779.0798767814912" y2="550" style="fill: none; stroke: black; stroke-width: 1;"></line>
    <line x1="600" y1="600" x2="794.7371427464909" y2="550" style="fill: none; stroke: black; stroke-width: 1;"></line>
    <line x1="600" y1="600" x2="813.1760878339034" y2="550" style="fill: none; stroke: black; stroke-width: 1;"></line>
    <line x1="600" y1="600" x2="835.2315054739196" y2="550" style="fill: none; stroke: black; stroke-width: 1;"></line>
    <line x1="600" y1="600" x2="845.571812682172" y2="553.154671353568" style="fill: none; stroke: black; stroke-width: 1;"></line>
    <line x1="600" y1="600" x2="846.4990092676261" y2="558.3078133209735" style="fill: none; stroke: black; stroke-width: 1;"></line>
    <line x1="600" y1="600" x2="847.318083240747" y2="563.4792428593962" style="fill: none; stroke: black; stroke-width: 1;"></line>
    <line x1="600" y1="600" x2="848.0286753286193" y2="568.666691608923" style="fill: none; stroke: black; stroke-width: 1;"></line>
    <line x1="600" y1="600" x2="848.6304738420682" y2="573.8678841830856" style="fill: none; stroke: black; stroke-width: 1;"></line>
    <line x1="600" y1="600" x2="849.123214812376" y2="579.0805391669201" style="fill: none; stroke: black; stroke-width: 1;"></line>
    <line x1="600" y1="600" x2="849.5066821070678" y2="584.3023701176705" style="fill: none; stroke: black; stroke-width: 1;"></line>
    <line x1="600" y1="600" x2="849.7807075247146" y2="589.5310865676989" style="fill: none; stroke: black; stroke-width: 1;"></line>
    <line x1="600" y1="600" x2="849.9451708687113" y2="594.7643950291596" style="fill: none; stroke: black; stroke-width: 1;"></line>
    <line x1="600" y1="600" x2="850" y2="599.9999999999987" style="fill: none; stroke: black; stroke-width: 1;"></line>
    <polyline points="300,550 550,550 550,300" style="fill: none; stroke: red; stroke-width: 5;"></polyline>
    <polyline points="650,300 650,550 900,550" style="fill: none; stroke: red; stroke-width: 5;"></polyline>
</svg>